<svg width="58" height="58" viewBox="0 0 58 58" fill="none" xmlns="http://www.w3.org/2000/svg">
<rect width="58" height="58" rx="28" fill="#A6EF5D" fill-opacity="0.2"/>
<path d="M24 35.25H34M24 35.25C24 36.6307 22.8807 37.75 21.5 37.75C20.1193 37.75 19 36.6307 19 35.25M24 35.25C24 33.8693 22.8807 32.75 21.5 32.75C20.1193 32.75 19 33.8693 19 35.25M34 35.25C34 36.6307 35.1193 37.75 36.5 37.75C37.8807 37.75 39 36.6307 39 35.25M34 35.25C34 33.8693 35.1193 32.75 36.5 32.75C37.8807 32.75 39 33.8693 39 35.25M26.5 20.25V27.75M19 27.75L19.4144 25.2636C19.7113 23.4824 19.8597 22.5918 20.3041 21.9235C20.6959 21.3344 21.2463 20.8681 21.8918 20.5785C22.6241 20.25 23.527 20.25 25.3328 20.25H29.5389C30.7129 20.25 31.2999 20.25 31.8328 20.4118C32.3045 20.5551 32.7433 20.7899 33.1242 21.103C33.5544 21.4565 33.88 21.945 34.5312 22.9218L37.75 27.75M19 35.25H18.5C17.7999 35.25 17.4499 35.25 17.1825 35.1138C16.9473 34.9939 16.7561 34.8027 16.6362 34.5675C16.5 34.3001 16.5 33.9501 16.5 33.25V31.75C16.5 30.3499 16.5 29.6498 16.7725 29.115C17.0122 28.6446 17.3946 28.2622 17.865 28.0225C18.3998 27.75 19.0999 27.75 20.5 27.75H35.5C36.429 27.75 36.8935 27.75 37.2822 27.8116C39.4216 28.1504 41.0996 29.8284 41.4384 31.9678C41.5 32.3565 41.5 32.821 41.5 33.75C41.5 33.9823 41.5 34.0984 41.4846 34.1955C41.3999 34.7304 40.9804 35.1499 40.4455 35.2346C40.3484 35.25 40.2323 35.25 40 35.25H39" stroke="#A6EF5D" strokeWidth="2" strokeLinecap="round" strokeLinejoin="round"/>
</svg>
