<svg width="48" height="48" viewBox="0 0 48 48" fill="none" xmlns="http://www.w3.org/2000/svg">
<rect width="48" height="48" rx="24" fill="#5D7DEF" fill-opacity="0.2"/>
<path d="M19 30.25H29M19 30.25C19 31.6307 17.8807 32.75 16.5 32.75C15.1193 32.75 14 31.6307 14 30.25M19 30.25C19 28.8693 17.8807 27.75 16.5 27.75C15.1193 27.75 14 28.8693 14 30.25M29 30.25C29 31.6307 30.1193 32.75 31.5 32.75C32.8807 32.75 34 31.6307 34 30.25M29 30.25C29 28.8693 30.1193 27.75 31.5 27.75C32.8807 27.75 34 28.8693 34 30.25M21.5 15.25V22.75M14 22.75L14.4144 20.2636C14.7113 18.4824 14.8597 17.5918 15.3041 16.9235C15.6959 16.3344 16.2463 15.8681 16.8918 15.5785C17.6241 15.25 18.527 15.25 20.3328 15.25H24.5389C25.7129 15.25 26.2999 15.25 26.8328 15.4118C27.3045 15.5551 27.7433 15.7899 28.1242 16.103C28.5544 16.4565 28.88 16.945 29.5312 17.9218L32.75 22.75M14 30.25H13.5C12.7999 30.25 12.4499 30.25 12.1825 30.1138C11.9473 29.9939 11.7561 29.8027 11.6362 29.5675C11.5 29.3001 11.5 28.9501 11.5 28.25V26.75C11.5 25.3499 11.5 24.6498 11.7725 24.115C12.0122 23.6446 12.3946 23.2622 12.865 23.0225C13.3998 22.75 14.0999 22.75 15.5 22.75H30.5C31.429 22.75 31.8935 22.75 32.2822 22.8116C34.4216 23.1504 36.0996 24.8284 36.4384 26.9678C36.5 27.3565 36.5 27.821 36.5 28.75C36.5 28.9823 36.5 29.0984 36.4846 29.1955C36.3999 29.7304 35.9804 30.1499 35.4455 30.2346C35.3484 30.25 35.2323 30.25 35 30.25H34" stroke="#295080" strokeLinecap="round" strokeLinejoin="round"/>
</svg>
