<svg width="174" height="172" viewBox="0 0 174 172" fill="none" xmlns="http://www.w3.org/2000/svg">
<path d="M91.0508 29.0156H131.518V40.5702C131.518 43.3447 129.435 45.5939 126.867 45.5939H95.7022C93.1333 45.5939 91.0508 43.3447 91.0508 40.5702V29.0156Z" fill="#6CC56C" fill-opacity="0.5"/>
<path d="M131.518 145.062H91.0504V133.508C91.0504 130.733 93.1329 128.484 95.7018 128.484H126.866C129.435 128.484 131.518 130.733 131.518 133.508V145.062Z" fill="#6CC56C" fill-opacity="0.5"/>
<path d="M133.541 0H174.008V11.5546C174.008 14.3291 171.926 16.5783 169.357 16.5783H138.192C135.624 16.5783 133.541 14.3291 133.541 11.5546V0Z" fill="#6CC56C" fill-opacity="0.5"/>
<path d="M174.008 116.047H133.541V104.492C133.541 101.718 135.623 99.4686 138.192 99.4686H169.356C171.925 99.4686 174.008 101.718 174.008 104.492V116.047Z" fill="#6CC56C" fill-opacity="0.5"/>
<path d="M133.541 55.9531H174.008V67.5077C174.008 70.2822 171.926 72.5314 169.357 72.5314H138.192C135.624 72.5314 133.541 70.2822 133.541 67.5077V55.9531Z" fill="#6CC56C" fill-opacity="0.5"/>
<path d="M174.008 172H133.541V160.445C133.541 157.671 135.623 155.422 138.192 155.422H169.356C171.925 155.422 174.008 157.671 174.008 160.445V172Z" fill="#6CC56C" fill-opacity="0.5"/>
<path d="M0 29.0156H40.4672V40.5702C40.4672 43.3447 38.3847 45.5939 35.8158 45.5939H4.6514C2.0825 45.5939 0 43.3447 0 40.5702V29.0156Z" fill="#6CC56C" fill-opacity="0.5"/>
<path d="M0 128.484H40.4672V140.039C40.4672 142.813 38.3847 145.063 35.8158 145.063H4.6514C2.0825 145.063 0 142.813 0 140.039L0 128.484Z" fill="#6CC56C" fill-opacity="0.5"/>
<path d="M42.4902 0H82.9574V11.5546C82.9574 14.3291 80.8749 16.5783 78.306 16.5783H47.1416C44.5727 16.5783 42.4902 14.3291 42.4902 11.5546V0Z" fill="#6CC56C" fill-opacity="0.5"/>
<path d="M42.4902 99.4688H82.9574V111.023C82.9574 113.798 80.8749 116.047 78.306 116.047H47.1416C44.5727 116.047 42.4902 113.798 42.4902 111.023V99.4688Z" fill="#6CC56C" fill-opacity="0.5"/>
<path d="M42.4902 55.9531H82.9574V67.5077C82.9574 70.2822 80.8749 72.5314 78.306 72.5314H47.1416C44.5727 72.5314 42.4902 70.2822 42.4902 67.5077V55.9531Z" fill="#6CC56C" fill-opacity="0.5"/>
<path d="M42.4902 155.422H82.9574V166.976C82.9574 169.751 80.8749 172 78.306 172H47.1416C44.5727 172 42.4902 169.751 42.4902 166.976V155.422Z" fill="#6CC56C" fill-opacity="0.5"/>
</svg>
