<svg width="41" height="42" viewBox="0 0 41 42" fill="none" xmlns="http://www.w3.org/2000/svg">
<path fill-rule="evenodd" clip-rule="evenodd" d="M33 21.5C33 29.232 26.732 35.5 19 35.5C11.268 35.5 5 29.232 5 21.5C5 13.768 11.268 7.5 19 7.5C26.732 7.5 33 13.768 33 21.5ZM21 15C21 15.8284 20.3284 16.5 19.5 16.5C18.6716 16.5 18 15.8284 18 15C18 14.1716 18.6716 13.5 19.5 13.5C20.3284 13.5 21 14.1716 21 15ZM20 29.5V19.5H18V29.5H20Z" fill="#F22D35"/>
<rect x="18" y="19.5" width="2" height="10" fill="white"/>
<circle cx="19.5" cy="15" r="1.5" fill="white"/>
</svg>
