<svg width="70" height="71" viewBox="0 0 70 71" fill="none" xmlns="http://www.w3.org/2000/svg">
<path d="M41.7756 52.9225L35.1209 46.2523C32.0622 43.1864 30.5328 41.6535 28.7721 41.0786C27.2231 40.5728 25.5559 40.5728 24.007 41.0786C22.2463 41.6535 20.7169 43.1864 17.6582 46.2523L2.16248 62.0269M41.7756 52.9225L43.0984 51.5965C46.2213 48.4663 47.7828 46.9013 49.5744 46.33C51.15 45.8276 52.8432 45.8473 54.4069 46.3862C56.185 46.9989 57.7105 48.5999 60.7613 51.8018L63.9998 55.1255M41.7756 52.9225L57.1025 68.6876M57.1025 68.6876C55.7474 68.8333 54.0076 68.8333 51.6 68.8333H14.4C10.0596 68.8333 7.88939 68.8333 6.23157 67.9796C4.77332 67.2285 3.58772 66.0302 2.8447 64.5563C2.48761 63.8479 2.28147 63.047 2.16248 62.0269M57.1025 68.6876C58.1903 68.5706 59.0302 68.3597 59.7684 67.9796C61.2267 67.2285 62.4123 66.0302 63.1553 64.5563C64 62.8806 64 60.6871 64 56.3V41.4167M29.125 6.16667H14.4C10.0596 6.16667 7.88939 6.16667 6.23157 7.02045C4.77332 7.77146 3.58772 8.96981 2.8447 10.4437C2 12.1194 2 14.3129 2 18.7V56.3C2 58.8325 2 60.634 2.16248 62.0269M56.25 25.75V14M56.25 14V2.25M56.25 14H67.875M56.25 14H44.625" stroke="#036E03" strokeWidth="4" strokeLinecap="round" strokeLinejoin="round"/>
</svg>
