<svg width="120" height="120" viewBox="0 0 120 120" fill="none" xmlns="http://www.w3.org/2000/svg">
<path d="M27.8564 72.4963L47.329 92.0666M94.9981 18.0448C87.0221 17.9713 83.3289 21.6578 82.1179 25.3833C81.0515 28.6638 82.0257 35.3828 79.4797 40.3596C77.0453 45.1182 70.6017 47.8046 63.2853 48.0309M99.9999 38.0481L100.05 38.0485M94.9999 79.7961L95.0499 79.7966M34.9999 19.7424L35.0499 19.7429M94.9998 55.5432C87.4998 55.5432 82.4998 58.0432 77.9743 62.7197M51.1883 35.9359C54.9999 30.5456 57.4999 25.5456 55.0411 17.6328M17.6787 102.319L35.3564 49.2856L70.7117 84.641L17.6787 102.319Z" stroke="#036E03" strokeWidth="5" strokeLinecap="round" strokeLinejoin="round"/>
</svg>
