<svg width="40" height="40" viewBox="0 0 40 40" fill="none" xmlns="http://www.w3.org/2000/svg">
<rect width="40" height="40" rx="20" fill="#036E03"/>
<path d="M16.667 24.166H23.3337M16.667 24.166C16.667 25.0865 15.9208 25.8327 15.0003 25.8327C14.0799 25.8327 13.3337 25.0865 13.3337 24.166M16.667 24.166C16.667 23.2455 15.9208 22.4993 15.0003 22.4993C14.0799 22.4993 13.3337 23.2455 13.3337 24.166M23.3337 24.166C23.3337 25.0865 24.0799 25.8327 25.0003 25.8327C25.9208 25.8327 26.667 25.0865 26.667 24.166M23.3337 24.166C23.3337 23.2455 24.0799 22.4993 25.0003 22.4993C25.9208 22.4993 26.667 23.2455 26.667 24.166M18.3337 14.166V19.166M13.3337 19.166L13.6099 17.5084C13.8078 16.321 13.9068 15.7272 14.2031 15.2817C14.4643 14.8889 14.8312 14.5781 15.2615 14.385C15.7497 14.166 16.3517 14.166 17.5555 14.166H20.3596C21.1423 14.166 21.5336 14.166 21.8888 14.2739C22.2033 14.3694 22.4959 14.526 22.7498 14.7347C23.0366 14.9704 23.2536 15.296 23.6878 15.9472L25.8337 19.166M13.3337 24.166H13.0003C12.5336 24.166 12.3003 24.166 12.122 24.0752C11.9652 23.9953 11.8377 23.8678 11.7578 23.711C11.667 23.5327 11.667 23.2994 11.667 22.8327V21.8327C11.667 20.8993 11.667 20.4326 11.8486 20.076C12.0084 19.7624 12.2634 19.5075 12.577 19.3477C12.9335 19.166 13.4002 19.166 14.3337 19.166H24.3337C24.953 19.166 25.2627 19.166 25.5218 19.2071C26.9481 19.433 28.0667 20.5516 28.2926 21.9779C28.3337 22.237 28.3337 22.5467 28.3337 23.166C28.3337 23.3209 28.3337 23.3983 28.3234 23.463C28.2669 23.8196 27.9873 24.0993 27.6307 24.1558C27.5659 24.166 27.4885 24.166 27.3337 24.166H26.667" stroke="white" stroke-width="2" stroke-linecap="round" stroke-linejoin="round"/>
</svg>
