<svg width="55" height="54" viewBox="0 0 55 54" fill="none" xmlns="http://www.w3.org/2000/svg">
<rect x="0.5" width="54" height="54" rx="27" fill="#C05406"/>
<path d="M37.5 34.5L33.75 34.5M33.75 34.5L30 34.5M33.75 34.5V30.75M33.75 34.5V38.25M26.25 38.25H17.5C17.5 33.4175 21.4175 29.5 26.25 29.5C27.1187 29.5 27.9579 29.6266 28.75 29.8623M31.25 20.75C31.25 23.5114 29.0114 25.75 26.25 25.75C23.4886 25.75 21.25 23.5114 21.25 20.75C21.25 17.9886 23.4886 15.75 26.25 15.75C29.0114 15.75 31.25 17.9886 31.25 20.75Z" stroke="white" stroke-width="2" stroke-linecap="round" stroke-linejoin="round"/>
</svg>
