<svg width="40" height="40" viewBox="0 0 40 40" fill="none" xmlns="http://www.w3.org/2000/svg">
<rect width="40" height="40" rx="20" fill="#036E03"/>
<path d="M14.8528 15.0003C15.1986 15.3057 15.4167 15.7524 15.4167 16.25C15.4167 17.1705 14.6705 17.9167 13.75 17.9167C13.2524 17.9167 12.8057 17.6986 12.5003 17.3528M14.8528 15.0003C14.9512 15 15.0556 15 15.1667 15H24.8333C24.9444 15 25.0488 15 25.1472 15.0003M14.8528 15.0003C14.1238 15.0026 13.7241 15.0216 13.41 15.1817C13.0964 15.3414 12.8414 15.5964 12.6817 15.91C12.5216 16.2241 12.5026 16.6238 12.5003 17.3528M12.5003 17.3528C12.5 17.4512 12.5 17.5556 12.5 17.6667V22.3333C12.5 22.4444 12.5 22.5488 12.5003 22.6472M12.5003 22.6472C12.8057 22.3014 13.2524 22.0833 13.75 22.0833C14.6705 22.0833 15.4167 22.8295 15.4167 23.75C15.4167 24.2476 15.1986 24.6943 14.8528 24.9997M12.5003 22.6472C12.5026 23.3762 12.5216 23.7759 12.6817 24.09C12.8414 24.4036 13.0964 24.6586 13.41 24.8183C13.7241 24.9784 14.1238 24.9974 14.8528 24.9997M14.8528 24.9997C14.9512 25 15.0556 25 15.1667 25H24.8333C24.9444 25 25.0488 25 25.1472 24.9997M27.5 22.6476C27.1946 22.3016 26.7478 22.0833 26.25 22.0833C25.3295 22.0833 24.5833 22.8295 24.5833 23.75C24.5833 24.2476 24.8014 24.6943 25.1472 24.9997M27.5 22.6476C27.5003 22.549 27.5 22.4445 27.5 22.3333V17.6667C27.5 17.5556 27.5 17.4512 27.4997 17.3528M27.5 22.6476C27.4977 23.3764 27.4784 23.7759 27.3183 24.09C27.1586 24.4036 26.9036 24.6586 26.59 24.8183C26.2759 24.9784 25.8762 24.9974 25.1472 24.9997M27.4997 17.3528C27.1943 17.6986 26.7476 17.9167 26.25 17.9167C25.3295 17.9167 24.5833 17.1705 24.5833 16.25C24.5833 15.7524 24.8014 15.3057 25.1472 15.0003M27.4997 17.3528C27.4974 16.6238 27.4784 16.2241 27.3183 15.91C27.1586 15.5964 26.9036 15.3414 26.59 15.1817C26.2759 15.0216 25.8762 15.0026 25.1472 15.0003M21.6667 20C21.6667 20.9205 20.9205 21.6667 20 21.6667C19.0795 21.6667 18.3333 20.9205 18.3333 20C18.3333 19.0795 19.0795 18.3333 20 18.3333C20.9205 18.3333 21.6667 19.0795 21.6667 20Z" stroke="white" stroke-width="2" stroke-linecap="round" stroke-linejoin="round"/>
</svg>
