<svg width="54" height="54" viewBox="0 0 54 54" fill="none" xmlns="http://www.w3.org/2000/svg">
<rect width="54" height="54" rx="27" fill="#375F90"/>
<path d="M22 20.125H32M21.6313 22.8865L27.3532 31.1292M17.75 23.25H20C20.7001 23.25 21.0501 23.25 21.3175 23.1138C21.5527 22.9939 21.7439 22.8027 21.8638 22.5675C22 22.3001 22 21.9501 22 21.25V19C22 18.2999 22 17.9499 21.8638 17.6825C21.7439 17.4473 21.5527 17.2561 21.3175 17.1362C21.0501 17 20.7001 17 20 17H17.75C17.0499 17 16.6999 17 16.4325 17.1362C16.1973 17.2561 16.0061 17.4473 15.8862 17.6825C15.75 17.9499 15.75 18.2999 15.75 19V21.25C15.75 21.9501 15.75 22.3001 15.8862 22.5675C16.0061 22.8027 16.1973 22.9939 16.4325 23.1138C16.6999 23.25 17.0499 23.25 17.75 23.25ZM29 37H31.25C31.9501 37 32.3001 37 32.5675 36.8638C32.8027 36.7439 32.9939 36.5527 33.1138 36.3175C33.25 36.0501 33.25 35.7001 33.25 35V32.75C33.25 32.0499 33.25 31.6999 33.1138 31.4325C32.9939 31.1973 32.8027 31.0061 32.5675 30.8862C32.3001 30.75 31.9501 30.75 31.25 30.75H29C28.2999 30.75 27.9499 30.75 27.6825 30.8862C27.4473 31.0061 27.2561 31.1973 27.1362 31.4325C27 31.6999 27 32.0499 27 32.75V35C27 35.7001 27 36.0501 27.1362 36.3175C27.2561 36.5527 27.4473 36.7439 27.6825 36.8638C27.9499 37 28.2999 37 29 37ZM34 23.25H36.25C36.9501 23.25 37.3001 23.25 37.5675 23.1138C37.8027 22.9939 37.9939 22.8027 38.1138 22.5675C38.25 22.3001 38.25 21.9501 38.25 21.25V19C38.25 18.2999 38.25 17.9499 38.1138 17.6825C37.9939 17.4473 37.8027 17.2561 37.5675 17.1362C37.3001 17 36.9501 17 36.25 17H34C33.2999 17 32.9499 17 32.6825 17.1362C32.4473 17.2561 32.2561 17.4473 32.1362 17.6825C32 17.9499 32 18.2999 32 19V21.25C32 21.9501 32 22.3001 32.1362 22.5675C32.2561 22.8027 32.4473 22.9939 32.6825 23.1138C32.9499 23.25 33.2999 23.25 34 23.25Z" stroke="white" stroke-width="2" stroke-linecap="round" stroke-linejoin="round"/>
</svg>
