<svg width="108" height="150" viewBox="0 0 108 150" fill="none" xmlns="http://www.w3.org/2000/svg">
<path fill-rule="evenodd" clip-rule="evenodd" d="M106.963 78.021C106.846 77.6004 106.934 76.5926 107.048 76.1187C107.372 74.7781 107.23 74.8146 107.286 73.3385C107.348 71.7234 107.367 70.114 107.381 68.4983L107.998 0.18043L77.3978 0.409573L76.7138 71.8251L76.471 71.8403C76.4837 72.4039 76.5374 73.1817 76.3729 73.6911L76.1877 74.8914C76.0662 76.7495 75.8887 76.0154 75.835 76.9758C75.825 77.1578 75.814 77.5626 75.778 77.7234C75.6444 78.3203 75.6644 77.5346 75.5292 78.3153C75.5027 78.4694 75.5282 78.5382 75.4674 78.6944L75.1789 79.5852C75.099 79.9272 74.7227 80.481 74.6531 80.6859C74.6029 80.835 74.6237 80.9264 74.5875 81.0682C74.4807 81.4876 74.5827 81.1408 74.4799 81.305L74.1926 81.7859C74.1827 81.8005 74.1647 81.819 74.1548 81.8333L73.9593 82.4035C73.8073 82.9144 73.9743 82.4112 73.8007 82.6826C73.7121 82.8213 73.6392 83.1185 73.465 83.3061C73.04 83.7631 73.2728 83.4696 73.0152 83.9629C72.905 84.1736 73.0308 83.9676 72.9023 84.1237L70.8017 86.6463C70.7901 86.6612 70.7738 86.6807 70.7629 86.6963L70.3827 87.183C70.37 87.1947 70.3499 87.2116 70.3376 87.2236L69.9918 87.5727C69.8592 87.6713 70.0321 87.5631 69.8222 87.6729C69.798 87.6856 69.7202 87.7158 69.6956 87.7286C69.5191 87.8195 69.6048 87.7695 69.4691 87.8659C69.4536 87.877 69.4336 87.8936 69.4188 87.9047L69.0611 88.2216C69.0484 88.2339 69.0301 88.2528 69.017 88.2651L68.2232 88.9563C67.9459 89.1446 67.8804 89.0506 67.5727 89.2833C67.5572 89.2947 67.5389 89.3126 67.5238 89.3246C67.5087 89.3366 67.4903 89.3548 67.4755 89.3672C67.4604 89.3796 67.4421 89.3977 67.427 89.4101L67.3274 89.4927C67.1604 89.6122 67.3683 89.4911 67.1592 89.5945L65.5948 90.3301C65.5779 90.3386 65.5582 90.3542 65.5414 90.363L63.7558 91.1592C63.3741 91.3418 63.1236 91.3151 62.8557 91.4328L62.6383 91.5597C62.6162 91.5686 62.5935 91.5781 62.5696 91.5857C61.9038 91.7939 62.0474 91.5961 61.5888 91.8251C61.3429 91.9477 60.6242 91.9782 60.4575 92.0603C60.1327 92.2206 59.7384 92.1392 59.3688 92.2598L59.1572 92.3755C59.14 92.383 59.1185 92.3961 59.1 92.4026C58.5358 92.6072 57.7525 92.5214 57.1515 92.5482C56.5579 92.5746 56.2638 92.7279 55.6199 92.7501C55.084 92.7684 54.5533 92.7866 53.9909 92.7912C53.1578 92.7983 52.286 92.8402 51.4575 92.767C50.8196 92.7108 51.3548 92.7 50.8194 92.6128C50.2143 92.5138 49.3211 92.7219 48.7266 92.461C48.7096 92.4534 48.6901 92.438 48.6738 92.4301C48.6585 92.4224 48.6398 92.4061 48.6245 92.3988C48.6095 92.3915 48.5901 92.3762 48.5744 92.3698C48.5588 92.3632 48.5369 92.3511 48.5198 92.3454C48.3043 92.2746 47.9896 92.3088 47.7533 92.2985C47.1566 92.2724 47.2471 92.076 46.3108 92.0293C45.6307 91.9954 45.6286 91.7629 44.8734 91.7375C44.5974 91.3934 44.9961 91.568 44.3358 91.4736C43.9671 91.421 43.655 91.2478 43.3077 91.0745L41.4527 90.2225C41.4347 90.2136 41.4128 90.2012 41.394 90.1929C41.1226 90.0749 41.0473 90.0967 40.8374 89.9024L40.6982 89.7737C40.684 89.7619 40.6646 89.7449 40.6496 89.7341C40.4314 89.5747 40.1342 89.5368 39.9494 89.3804C39.9352 89.3685 39.9179 89.35 39.9041 89.3378L39.3146 88.8205C38.6206 88.4806 38.8759 88.5933 38.253 88.0707L37.6252 87.472C37.6141 87.4611 37.5961 87.4429 37.5847 87.432L34.8281 84.0877C34.6942 83.9484 34.7707 84.0627 34.6867 83.842L34.4014 83.2616C34.3621 83.1642 34.3868 83.1791 34.3322 83.0689L34.2292 82.9129C33.9783 82.5044 33.9322 82.2755 33.772 81.8367C33.6063 81.3832 33.7403 81.7879 33.6156 81.5905C33.4004 81.2492 33.4863 81.0174 33.3322 80.7627C33.3232 80.7476 33.3066 80.7293 33.298 80.7139L33.1571 80.3469C32.6401 79.276 33.0063 79.3251 32.7519 78.8041C32.744 78.7877 32.7302 78.7681 32.7223 78.7514C32.7141 78.7347 32.7021 78.7141 32.6938 78.6968L32.6229 78.5119C32.1447 77.3484 32.4371 77.5057 32.3178 76.3585C32.2696 75.8935 32.3084 76.2083 32.2184 76.0802L32.0501 75.4532C32.0489 75.1591 32.058 75.0013 31.9727 74.7388C31.6689 73.806 31.7962 72.6667 31.8011 71.6954C31.9017 52.2816 32.149 32.8654 32.3243 13.4508C32.3629 9.17367 32.5048 4.78782 32.4298 0.524086L1.28067 0.777703C1.12351 8.39628 1.13849 16.0591 1.06966 23.6819L0.655233 69.5768C0.650265 70.1269 0.49853 73.0449 0.713398 73.4626C1.14691 74.3058 0.614571 76.5166 1.0277 77.7218C1.24312 78.3495 0.937769 79.2875 1.26583 79.895C1.27304 79.9088 1.29035 79.9264 1.29791 79.9402C1.58537 80.4797 1.27587 81.5683 1.53943 82.0473C1.71193 82.3608 1.64217 82.8918 1.7537 83.2664L1.94984 83.7468C2.17133 84.7466 2.11311 84.1543 2.21939 84.5299C2.33108 84.9248 2.19778 85.3366 2.41656 85.7085C2.54452 85.9262 2.52007 86.0419 2.55135 86.3299L2.68919 86.7689C2.87915 87.1607 2.77614 87.6989 2.97847 88.0745C2.98637 88.089 3.00297 88.1069 3.01123 88.1211L3.10552 88.2765C3.15771 88.4151 3.14172 88.4452 3.16249 88.5821L3.27922 88.9609C3.28747 88.975 3.30548 88.992 3.31408 89.0064C3.451 89.2373 3.44773 89.4841 3.46314 89.7494C3.80313 89.9653 3.67311 89.7814 3.75239 90.2462L4.28032 91.4248C4.31433 91.5642 4.29725 91.6768 4.33901 91.8101C4.43031 92.1035 4.77003 92.4649 4.86749 92.7719C4.87802 92.8047 4.8878 92.8824 4.89379 92.9149L6.44182 96.0777C6.99645 96.8903 7.07715 97.4296 7.65417 98.0844L9.00357 100.152C9.49703 100.622 9.23997 100.584 9.57102 100.937L10.2807 101.874C10.3601 101.977 10.291 101.888 10.407 101.995L10.7151 102.301C10.7563 102.348 10.8157 102.421 10.871 102.486L11.7669 103.558C12.3369 104.063 12.2223 104.187 12.6326 104.584C12.6464 104.597 12.6652 104.614 12.6786 104.628L15.7172 107.453C15.7301 107.463 15.7509 107.479 15.763 107.489L16.1498 107.862C16.164 107.874 16.1834 107.891 16.198 107.903C16.2125 107.916 16.2319 107.933 16.2465 107.945L16.6246 108.269C16.7713 108.388 17.4217 108.726 18.0029 109.299C18.0154 109.311 18.0331 109.329 18.0455 109.341L18.9901 109.977C19.4079 110.203 19.6325 110.551 20.1024 110.769C20.3997 110.908 20.1332 110.755 20.3856 110.932L20.6196 111.12C20.7885 111.259 20.6581 111.188 20.8689 111.288L21.6894 111.78C21.7589 111.819 21.8567 111.854 21.9224 111.89L22.0797 111.992C22.0953 112.002 22.114 112.019 22.1304 112.028L22.5139 112.179C22.737 112.266 22.6063 112.2 22.7856 112.34L23.7653 112.913C23.7848 112.922 23.8095 112.93 23.8297 112.939C23.8502 112.948 23.876 112.955 23.8966 112.963L24.1949 113.11C24.2112 113.12 24.2313 113.135 24.247 113.146L26.3105 114.144C26.3279 114.153 26.347 114.168 26.364 114.177C26.381 114.186 26.4008 114.201 26.4182 114.209C26.4359 114.218 26.4578 114.23 26.4762 114.239L28.4175 115.012C28.4331 115.021 28.4525 115.038 28.4681 115.046L29.9334 115.578C29.9508 115.587 29.9716 115.6 29.9901 115.609C30.0095 115.618 30.0325 115.628 30.0527 115.637C30.0742 115.646 30.099 115.653 30.1213 115.662C30.1484 115.673 30.2383 115.697 30.2651 115.708C30.2867 115.716 30.3114 115.724 30.3323 115.732L31.3881 116.084C31.6546 116.236 31.8973 116.201 32.1808 116.327L33.4964 116.766C34.2615 116.933 33.4249 116.911 34.0857 117.019L34.7035 117.15C35.007 117.303 35.2412 117.246 35.6076 117.313C36.3423 117.449 35.457 117.442 36.2359 117.549C36.5684 117.595 36.7064 117.552 37.0018 117.674L37.6682 117.828C38.3551 117.883 38.5366 118.04 39.1256 118.113C39.9786 118.217 39.1271 118.217 39.7635 118.326C39.9678 118.361 40.4338 118.359 40.6628 118.367C41.0444 118.381 41.1801 118.443 41.3746 118.527C41.7691 118.697 42.3978 118.621 42.9199 118.664C43.1433 118.682 43.1303 118.683 43.3045 118.737L44.4437 118.896C46.1125 118.939 45.4919 119.053 45.9851 119.123C46.8805 119.251 48.1277 118.982 49.0016 119.248C49.6213 119.437 55.6445 119.425 56.3477 119.29L56.6753 119.181C57.0635 119.079 57.4989 119.101 57.9062 119.09C58.5116 119.074 59.1178 119.052 59.7229 119.037C59.8224 119.034 60.0812 119.033 60.1648 119.019C60.5961 118.953 60.2758 118.989 60.4547 118.906L60.7962 118.803C60.8993 118.791 61.1407 118.788 61.2556 118.785C61.9096 118.766 61.9356 118.752 62.3949 118.6C62.9725 118.408 63.8535 118.545 64.4151 118.43C65.074 118.296 64.2693 118.295 65.0497 118.208C65.301 118.181 65.7097 118.211 65.9454 118.15C66.4705 118.014 65.7355 118.221 66.2222 118.013C66.4473 117.916 66.7892 117.951 67.0512 117.907C67.606 117.813 67.1692 117.881 67.3649 117.787C67.8581 117.55 68.5038 117.722 69.283 117.408L69.7617 117.229C69.7782 117.221 69.7976 117.205 69.8137 117.197L70.8826 116.987C71.242 116.837 70.7191 116.949 71.2256 116.828C71.3243 116.804 71.5277 116.791 71.6242 116.78C71.9372 116.744 72.1454 116.621 72.2849 116.56C72.5416 116.447 72.8157 116.496 73.1034 116.433C73.5492 116.334 73.1204 116.437 73.3854 116.303L75.5696 115.457C75.832 115.334 76.0658 115.391 76.3682 115.323C76.8141 115.223 76.397 115.305 76.7117 115.153C76.7313 115.143 76.7541 115.131 76.7752 115.122L78.758 114.268C79.2779 114.093 78.9309 114.385 79.1934 113.974C79.3482 113.962 79.5823 113.953 79.7276 113.914L81.836 112.922C82.6222 112.381 82.6456 112.529 83.3328 112.122L83.4414 112.053C83.5811 111.978 83.6973 111.949 83.8198 111.883L84.5892 111.497C84.7859 111.33 84.8267 111.23 85.0962 111.129L85.6003 110.837C85.6158 110.824 85.6341 110.807 85.65 110.794C85.6658 110.781 85.6845 110.764 85.701 110.752L85.9397 110.617C85.9941 110.595 86.2406 110.527 86.4678 110.309L86.6639 110.135C86.7693 110.064 86.6543 110.12 86.8467 110.041C87.4164 109.804 87.363 109.723 87.7663 109.387L88.2393 109.149C88.4616 109.053 88.3299 109.129 88.5101 108.974L88.9118 108.59C88.9252 108.578 88.9449 108.56 88.9586 108.548L89.9007 107.913C89.9074 107.908 90.1874 107.687 90.1895 107.685C90.256 107.63 90.2617 107.624 90.3342 107.562L90.9752 106.974C91.016 106.94 91.0543 106.917 91.1214 106.865L91.4126 106.613C91.784 106.287 91.7323 106.52 92.2742 105.989L93.9716 104.449C94.2002 104.194 94.2796 103.95 94.5637 103.709L95.751 102.563C95.763 102.55 95.7796 102.53 95.7916 102.516C95.804 102.503 95.8213 102.483 95.8343 102.47C95.8519 102.451 95.9059 102.396 95.9246 102.378C95.9295 102.373 96.058 102.257 96.0675 102.248C96.3621 101.957 96.3326 101.747 96.5696 101.531C96.583 101.519 96.603 101.503 96.6164 101.491L97.2485 100.724C97.3673 100.494 97.6522 100.309 97.8318 100.101L97.9553 99.9616C97.967 99.947 97.9843 99.9282 97.9959 99.9129C98.1671 99.6824 98.2283 99.4724 98.4347 99.2865C98.7347 99.0164 98.8618 98.6711 99.1281 98.3471L99.3913 97.9021C99.5713 97.6122 99.2641 98.0259 99.5004 97.7695L100.042 96.9988C100.045 96.9949 100.254 96.7922 100.258 96.7886C100.625 96.451 100.598 96.2042 100.962 95.5792L101.666 94.3911C102.007 93.9782 101.941 94.1299 102.094 93.5803C102.179 93.2791 102.445 92.9722 102.617 92.6672C102.696 92.5267 102.709 92.4389 102.79 92.2993C102.899 92.1112 102.8 92.3189 102.896 92.1473L103.746 90.2445C104.01 89.8005 103.81 89.8484 104.148 89.273C104.226 89.1399 104.209 89.1132 104.29 88.9766C104.299 88.9604 104.314 88.94 104.324 88.9247C104.334 88.9102 104.351 88.8913 104.36 88.8771C104.485 88.6882 104.434 88.5828 104.555 88.2194C104.667 87.8817 104.73 88.0283 104.823 87.5397C104.965 86.7957 104.955 87.5262 105.113 86.8272C105.173 86.5617 105.112 86.6392 105.241 86.4123C105.45 86.0445 105.377 86.2349 105.436 85.6956C105.503 85.0728 105.683 85.5597 105.759 84.5321C105.771 84.3682 105.776 84.1798 105.792 84.0207C105.844 83.4947 106.067 83.7792 106.092 82.8544C106.115 82.0226 106.142 82.4326 106.315 82.1337C106.44 81.9174 106.364 81.7083 106.459 81.4674L106.521 81.3619C106.629 81.1673 106.587 81.5601 106.657 81.0236C106.707 80.6398 106.616 80.1609 106.757 79.7945L106.817 79.6899C106.914 79.5119 106.881 79.8746 106.954 79.3526C107.015 78.9304 107.074 78.4137 106.964 78.021L106.963 78.021Z" fill="white"/>
<path fill-rule="evenodd" clip-rule="evenodd" d="M28.8222 142.785C28.6114 145.281 32.6111 148.811 35.3949 149.029C35.9545 149.073 36.7086 149.038 37.2866 149.035L71.7828 148.841C74.7576 148.813 79.8204 146.162 79.6295 142.761L79.7118 131.239L28.9978 131.523L28.8998 131.523L28.8222 142.785L28.8222 142.785Z" fill="white"/>
</svg>
