<svg width="55" height="54" viewBox="0 0 55 54" fill="none" xmlns="http://www.w3.org/2000/svg">
<rect x="0.5" width="54" height="54" rx="27" fill="#C05406"/>
<path d="M28.8889 38V35.25C28.8889 31.453 25.7798 28.375 21.9444 28.375C18.1091 28.375 15 31.453 15 35.25V38H28.8889ZM28.8889 38H40V36.625C40 32.5749 36.8909 29.75 33.0556 29.75C31.0926 29.75 29.3199 30.61 28.0568 31.9928M26.1111 20.125C26.1111 22.4032 24.2456 24.25 21.9444 24.25C19.6433 24.25 17.7778 22.4032 17.7778 20.125C17.7778 17.8468 19.6433 16 21.9444 16C24.2456 16 26.1111 17.8468 26.1111 20.125ZM35.8333 22.875C35.8333 24.3938 34.5897 25.625 33.0556 25.625C31.5214 25.625 30.2778 24.3938 30.2778 22.875C30.2778 21.3562 31.5214 20.125 33.0556 20.125C34.5897 20.125 35.8333 21.3562 35.8333 22.875Z" stroke="white" stroke-width="2" stroke-linecap="round" stroke-linejoin="round"/>
</svg>
