<svg width="54" height="54" viewBox="0 0 54 54" fill="none" xmlns="http://www.w3.org/2000/svg">
<rect width="54" height="54" rx="27" fill="#036E03"/>
<path d="M23.875 28.25V32M23.875 28.25H28.25C29.9759 28.25 31.375 26.8509 31.375 25.125C31.375 23.3991 29.9759 22 28.25 22H23.875V28.25ZM21 37H33C34.4001 37 35.1002 37 35.635 36.7275C36.1054 36.4878 36.4878 36.1054 36.7275 35.635C37 35.1002 37 34.4001 37 33V21C37 19.5999 37 18.8998 36.7275 18.365C36.4878 17.8946 36.1054 17.5122 35.635 17.2725C35.1002 17 34.4001 17 33 17H21C19.5999 17 18.8998 17 18.365 17.2725C17.8946 17.5122 17.5122 17.8946 17.2725 18.365C17 18.8998 17 19.5999 17 21V33C17 34.4001 17 35.1002 17.2725 35.635C17.5122 36.1054 17.8946 36.4878 18.365 36.7275C18.8998 37 19.5999 37 21 37Z" stroke="white" stroke-width="2" stroke-linecap="round" stroke-linejoin="round"/>
</svg>
